<?xml version="1.0" encoding="UTF-8"?>
<svg xmlns="http://www.w3.org/2000/svg" xmlns:xlink="http://www.w3.org/1999/xlink" width="531" height="530" viewBox="0 0 531 530">
<path fill-rule="nonzero" fill="rgb(98.431373%, 96.862745%, 92.941176%)" fill-opacity="1" stroke-width="20" stroke-linecap="butt" stroke-linejoin="miter" stroke="rgb(0.784314%, 0%, 83.137255%)" stroke-opacity="1" stroke-miterlimit="10" d="M 10 9 L 521 9 L 521 521 L 10 521 Z M 10 9 "/>
<path fill-rule="nonzero" fill="rgb(56.862745%, 10.980392%, 12.54902%)" fill-opacity="1" stroke-width="1" stroke-linecap="butt" stroke-linejoin="miter" stroke="rgb(0.784314%, 0%, 83.137255%)" stroke-opacity="1" stroke-miterlimit="10" d="M 47.345184 -17.755348 L 47.345184 -53.673317 C 44.610809 -55.001442 42.079559 -55.946754 39.755341 -56.513161 C 37.431122 -57.079567 35.118622 -57.364723 32.813934 -57.364723 C 27.227997 -57.364723 22.833466 -55.313942 19.630341 -51.212379 C 16.427216 -47.110817 14.825653 -41.231911 14.825653 -33.575661 C 14.825653 -26.310036 16.044403 -20.782692 18.485809 -16.993629 C 20.927216 -13.204567 24.884247 -11.310036 30.352997 -11.310036 C 33.204559 -11.310036 36.142059 -11.876442 39.169403 -13.009254 C 42.196747 -14.142067 44.923309 -15.724098 47.345184 -17.755348 Z M 10.313934 10.486839 C 11.056122 10.799339 12.149872 11.217308 13.595184 11.744652 C 15.040497 12.271996 16.681122 12.771996 18.517059 13.240746 C 20.548309 13.748558 22.423309 14.158714 24.142059 14.471214 C 25.860809 14.783714 27.735809 14.939964 29.767059 14.939964 C 33.165497 14.939964 36.044403 14.490746 38.407684 13.592308 C 40.770966 12.693871 42.618622 11.443871 43.946747 9.842308 C 45.196747 8.240746 46.075653 6.385277 46.583466 4.275902 C 47.091278 2.166527 47.345184 -0.235817 47.345184 -2.931129 L 47.345184 -8.673317 C 44.376434 -6.095192 41.466278 -4.188942 38.614716 -2.958473 C 35.763153 -1.728004 32.188934 -1.114723 27.892059 -1.114723 C 20.431122 -1.114723 14.493622 -3.888161 10.079559 -9.435036 C 5.665497 -14.981911 3.458466 -22.950661 3.458466 -33.341286 C 3.458466 -38.770973 4.220184 -43.583473 5.743622 -47.782692 C 7.267059 -51.981911 9.317841 -55.548317 11.895966 -58.478004 C 14.356903 -61.290504 17.267059 -63.458473 20.626434 -64.981911 C 23.985809 -66.505348 27.462372 -67.267067 31.056122 -67.267067 C 34.454559 -67.267067 37.392059 -66.864723 39.872528 -66.063942 C 42.352997 -65.263161 44.845184 -64.122536 47.345184 -62.638161 L 47.989716 -65.450661 L 58.360809 -65.450661 L 58.360809 -7.442848 C 58.360809 3.650902 55.938934 11.795433 51.095184 16.990746 C 46.251434 22.186058 38.849091 24.783714 28.888153 24.783714 C 25.685028 24.783714 22.411591 24.529808 19.071747 24.021996 C 15.731903 23.514183 12.618622 22.830589 9.727997 21.971214 L 9.727997 10.486839 Z M 113.673309 -17.755348 L 113.673309 -53.673317 C 110.938934 -55.001442 108.407684 -55.946754 106.083466 -56.513161 C 103.759247 -57.079567 101.446747 -57.364723 99.142059 -57.364723 C 93.556122 -57.364723 89.161591 -55.313942 85.958466 -51.212379 C 82.755341 -47.110817 81.153778 -41.231911 81.153778 -33.575661 C 81.153778 -26.310036 82.372528 -20.782692 84.813934 -16.993629 C 87.255341 -13.204567 91.212372 -11.310036 96.681122 -11.310036 C 99.532684 -11.310036 102.470184 -11.876442 105.497528 -13.009254 C 108.524872 -14.142067 111.251434 -15.724098 113.673309 -17.755348 Z M 76.642059 10.486839 C 77.384247 10.799339 78.477997 11.217308 79.923309 11.744652 C 81.368622 12.271996 83.009247 12.771996 84.845184 13.240746 C 86.876434 13.748558 88.751434 14.158714 90.470184 14.471214 C 92.188934 14.783714 94.063934 14.939964 96.095184 14.939964 C 99.493622 14.939964 102.372528 14.490746 104.735809 13.592308 C 107.099091 12.693871 108.946747 11.443871 110.274872 9.842308 C 111.524872 8.240746 112.403778 6.385277 112.911591 4.275902 C 113.419403 2.166527 113.673309 -0.235817 113.673309 -2.931129 L 113.673309 -8.673317 C 110.704559 -6.095192 107.794403 -4.188942 104.942841 -2.958473 C 102.091278 -1.728004 98.517059 -1.114723 94.220184 -1.114723 C 86.759247 -1.114723 80.821747 -3.888161 76.407684 -9.435036 C 71.993622 -14.981911 69.786591 -22.950661 69.786591 -33.341286 C 69.786591 -38.770973 70.548309 -43.583473 72.071747 -47.782692 C 73.595184 -51.981911 75.645966 -55.548317 78.224091 -58.478004 C 80.685028 -61.290504 83.595184 -63.458473 86.954559 -64.981911 C 90.313934 -66.505348 93.790497 -67.267067 97.384247 -67.267067 C 100.782684 -67.267067 103.720184 -66.864723 106.200653 -66.063942 C 108.681122 -65.263161 111.173309 -64.122536 113.673309 -62.638161 L 114.317841 -65.450661 L 124.688934 -65.450661 L 124.688934 -7.442848 C 124.688934 3.650902 122.267059 11.795433 117.423309 16.990746 C 112.579559 22.186058 105.177216 24.783714 95.216278 24.783714 C 92.013153 24.783714 88.739716 24.529808 85.399872 24.021996 C 82.060028 23.514183 78.946747 22.830589 76.056122 21.971214 L 76.056122 10.486839 Z M 195.528778 -34.454567 C 195.528778 -23.556129 192.919403 -14.872536 187.704559 -8.407692 C 182.489716 -1.942848 175.899872 1.287621 167.931122 1.287621 C 164.688934 1.287621 161.817841 0.916527 159.317841 0.174339 C 156.817841 -0.567848 154.259247 -1.720192 151.642059 -3.282692 L 151.642059 24.139183 L 140.626434 24.139183 L 140.626434 -65.450661 L 151.642059 -65.450661 L 151.642059 -58.595192 C 154.376434 -61.056129 157.411591 -63.114723 160.751434 -64.774879 C 164.091278 -66.435036 167.735809 -67.267067 171.681122 -67.267067 C 179.181122 -67.267067 185.028778 -64.298317 189.227997 -58.360817 C 193.427216 -52.423317 195.528778 -44.454567 195.528778 -34.454567 Z M 184.161591 -33.224098 C 184.161591 -40.685036 182.970184 -46.474098 180.587372 -50.595192 C 178.204559 -54.716286 174.337372 -56.778786 168.985809 -56.778786 C 165.860809 -56.778786 162.841278 -56.083473 159.931122 -54.696754 C 157.020966 -53.310036 154.259247 -51.524879 151.642059 -49.337379 L 151.642059 -12.247536 C 154.532684 -10.841286 157.001434 -9.884254 159.052216 -9.376442 C 161.102997 -8.868629 163.458466 -8.614723 166.114716 -8.614723 C 171.817841 -8.614723 176.251434 -10.704567 179.415497 -14.884254 C 182.579559 -19.063942 184.161591 -25.177223 184.161591 -33.224098 Z M 261.856903 -34.454567 C 261.856903 -23.556129 259.247528 -14.872536 254.032684 -8.407692 C 248.817841 -1.942848 242.227997 1.287621 234.259247 1.287621 C 231.017059 1.287621 228.145966 0.916527 225.645966 0.174339 C 223.145966 -0.567848 220.587372 -1.720192 217.970184 -3.282692 L 217.970184 24.139183 L 206.954559 24.139183 L 206.954559 -65.450661 L 217.970184 -65.450661 L 217.970184 -58.595192 C 220.704559 -61.056129 223.739716 -63.114723 227.079559 -64.774879 C 230.419403 -66.435036 234.063934 -67.267067 238.009247 -67.267067 C 245.509247 -67.267067 251.356903 -64.298317 255.556122 -58.360817 C 259.755341 -52.423317 261.856903 -44.454567 261.856903 -34.454567 Z M 250.489716 -33.224098 C 250.489716 -40.685036 249.298309 -46.474098 246.915497 -50.595192 C 244.532684 -54.716286 240.665497 -56.778786 235.313934 -56.778786 C 232.188934 -56.778786 229.169403 -56.083473 226.259247 -54.696754 C 223.349091 -53.310036 220.587372 -51.524879 217.970184 -49.337379 L 217.970184 -12.247536 C 220.860809 -10.841286 223.329559 -9.884254 225.380341 -9.376442 C 227.431122 -8.868629 229.786591 -8.614723 232.442841 -8.614723 C 238.145966 -8.614723 242.579559 -10.704567 245.743622 -14.884254 C 248.907684 -19.063942 250.489716 -25.177223 250.489716 -33.224098 Z M 0.00143433 -120.060036 " transform="matrix(1, 0, 0, 1, 135.643097, 124.161598)"/>
<path fill="none" stroke-width="12" stroke-linecap="butt" stroke-linejoin="miter" stroke="rgb(0.784314%, 0%, 83.137255%)" stroke-opacity="1" stroke-miterlimit="10" d="M 72 193 L 454 193 L 454 462 L 72 462 Z M 72 193 "/>
<path fill="none" stroke-width="9" stroke-linecap="butt" stroke-linejoin="miter" stroke="rgb(0.784314%, 0%, 83.137255%)" stroke-opacity="1" stroke-miterlimit="10" d="M 173.5 216.5 L 429.5 216.5 L 429.5 397.5 L 173.5 397.5 Z M 173.5 216.5 "/>
<path fill="none" stroke-width="6" stroke-linecap="butt" stroke-linejoin="miter" stroke="rgb(0.784314%, 0%, 83.137255%)" stroke-opacity="1" stroke-miterlimit="10" d="M 242 232 L 413 232 L 413 354 L 242 354 Z M 242 232 "/>
<path fill="none" stroke-width="4" stroke-linecap="butt" stroke-linejoin="miter" stroke="rgb(0.784314%, 0%, 83.137255%)" stroke-opacity="1" stroke-miterlimit="10" d="M 286 244 L 400 244 L 400 325 L 286 325 Z M 286 244 "/>
<path fill="none" stroke-width="3" stroke-linecap="butt" stroke-linejoin="miter" stroke="rgb(0.784314%, 0%, 83.137255%)" stroke-opacity="1" stroke-miterlimit="10" d="M 313.5 252.5 L 390.5 252.5 L 390.5 306.5 L 313.5 306.5 Z M 313.5 252.5 "/>
<path fill="none" stroke-width="1" stroke-linecap="butt" stroke-linejoin="miter" stroke="rgb(0.784314%, 0%, 83.137255%)" stroke-opacity="1" stroke-miterlimit="10" d="M 344.5 263.5 L 378.5 263.5 L 378.5 288.5 L 344.5 288.5 Z M 344.5 263.5 "/>
<path fill="none" stroke-width="2" stroke-linecap="butt" stroke-linejoin="miter" stroke="rgb(0.784314%, 0%, 83.137255%)" stroke-opacity="1" stroke-miterlimit="10" d="M 331 259 L 383 259 L 383 296 L 331 296 Z M 331 259 "/>
</svg>
