<?xml version="1.0" encoding="UTF-8"?>
<svg xmlns="http://www.w3.org/2000/svg" xmlns:xlink="http://www.w3.org/1999/xlink" width="531" height="530" viewBox="0 0 531 530">
<path fill-rule="nonzero" fill="rgb(98.431373%, 96.862745%, 92.941176%)" fill-opacity="1" stroke-width="20" stroke-linecap="butt" stroke-linejoin="miter" stroke="rgb(0.784314%, 0%, 83.137255%)" stroke-opacity="1" stroke-miterlimit="10" d="M 10 9 L 521 9 L 521 521 L 10 521 Z M 10 9 "/>
<path fill-rule="nonzero" fill="rgb(56.862745%, 10.980392%, 12.54902%)" fill-opacity="1" stroke-width="1" stroke-linecap="butt" stroke-linejoin="miter" stroke="rgb(0.784314%, 0%, 83.137255%)" stroke-opacity="1" stroke-miterlimit="10" d="M 54.493622 -33.575661 C 54.493622 -41.388161 52.880341 -47.442848 49.657684 -51.739723 C 46.435028 -56.036598 41.915497 -58.185036 36.095184 -58.185036 C 30.313934 -58.185036 25.810028 -56.036598 22.587372 -51.739723 C 19.364716 -47.442848 17.755341 -41.388161 17.755341 -33.575661 C 17.755341 -25.802223 19.364716 -19.767067 22.587372 -15.470192 C 25.810028 -11.173317 30.313934 -9.024879 36.095184 -9.024879 C 41.915497 -9.024879 46.435028 -11.173317 49.657684 -15.470192 C 52.880341 -19.767067 54.493622 -25.802223 54.493622 -33.575661 Z M 65.274872 -8.145973 C 65.274872 3.025902 62.794403 11.334496 57.833466 16.783714 C 52.872528 22.232933 45.274872 24.959496 35.040497 24.959496 C 31.251434 24.959496 27.677216 24.674339 24.317841 24.107933 C 20.958466 23.541527 17.696747 22.674339 14.532684 21.502464 L 14.532684 11.014183 C 17.696747 12.732933 20.821747 14.002464 23.907684 14.822777 C 26.993622 15.643089 30.138153 16.053246 33.341278 16.053246 C 40.411591 16.053246 45.704559 14.205589 49.220184 10.514183 C 52.735809 6.822777 54.493622 1.248558 54.493622 -6.212379 L 54.493622 -11.544411 C 52.267059 -7.677223 49.415497 -4.786598 45.938934 -2.872536 C 42.462372 -0.958473 38.302216 -0.00144196 33.458466 -0.00144196 C 25.411591 -0.00144196 18.927216 -3.067848 14.005341 -9.200661 C 9.083466 -15.333473 6.622528 -23.458473 6.622528 -33.575661 C 6.622528 -43.731911 9.083466 -51.876442 14.005341 -58.009254 C 18.927216 -64.142067 25.411591 -67.208473 33.458466 -67.208473 C 38.302216 -67.208473 42.462372 -66.251442 45.938934 -64.337379 C 49.415497 -62.423317 52.267059 -59.532692 54.493622 -55.665504 L 54.493622 -65.626442 L 65.274872 -65.626442 Z M 130.665497 -33.575661 C 130.665497 -41.388161 129.052216 -47.442848 125.829559 -51.739723 C 122.606903 -56.036598 118.087372 -58.185036 112.267059 -58.185036 C 106.485809 -58.185036 101.981903 -56.036598 98.759247 -51.739723 C 95.536591 -47.442848 93.927216 -41.388161 93.927216 -33.575661 C 93.927216 -25.802223 95.536591 -19.767067 98.759247 -15.470192 C 101.981903 -11.173317 106.485809 -9.024879 112.267059 -9.024879 C 118.087372 -9.024879 122.606903 -11.173317 125.829559 -15.470192 C 129.052216 -19.767067 130.665497 -25.802223 130.665497 -33.575661 Z M 141.446747 -8.145973 C 141.446747 3.025902 138.966278 11.334496 134.005341 16.783714 C 129.044403 22.232933 121.446747 24.959496 111.212372 24.959496 C 107.423309 24.959496 103.849091 24.674339 100.489716 24.107933 C 97.130341 23.541527 93.868622 22.674339 90.704559 21.502464 L 90.704559 11.014183 C 93.868622 12.732933 96.993622 14.002464 100.079559 14.822777 C 103.165497 15.643089 106.310028 16.053246 109.513153 16.053246 C 116.583466 16.053246 121.876434 14.205589 125.392059 10.514183 C 128.907684 6.822777 130.665497 1.248558 130.665497 -6.212379 L 130.665497 -11.544411 C 128.438934 -7.677223 125.587372 -4.786598 122.110809 -2.872536 C 118.634247 -0.958473 114.474091 -0.00144196 109.630341 -0.00144196 C 101.583466 -0.00144196 95.099091 -3.067848 90.177216 -9.200661 C 85.255341 -15.333473 82.794403 -23.458473 82.794403 -33.575661 C 82.794403 -43.731911 85.255341 -51.876442 90.177216 -58.009254 C 95.099091 -64.142067 101.583466 -67.208473 109.630341 -67.208473 C 114.474091 -67.208473 118.634247 -66.251442 122.110809 -64.337379 C 125.587372 -62.423317 128.438934 -59.532692 130.665497 -55.665504 L 130.665497 -65.626442 L 141.446747 -65.626442 Z M 174.083466 -9.845192 L 174.083466 24.959496 L 163.243622 24.959496 L 163.243622 -65.626442 L 174.083466 -65.626442 L 174.083466 -55.665504 C 176.349091 -59.571754 179.208466 -62.470192 182.665497 -64.364723 C 186.122528 -66.259254 190.255341 -67.208473 195.060028 -67.208473 C 203.028778 -67.208473 209.501434 -64.044411 214.481903 -57.716286 C 219.462372 -51.388161 221.954559 -43.067848 221.954559 -32.755348 C 221.954559 -22.442848 219.462372 -14.122536 214.481903 -7.794411 C 209.501434 -1.466286 203.028778 1.697777 195.060028 1.697777 C 190.255341 1.697777 186.122528 0.752464 182.665497 -1.142067 C 179.208466 -3.036598 176.349091 -5.938942 174.083466 -9.845192 Z M 210.763153 -32.755348 C 210.763153 -40.685036 209.130341 -46.903786 205.868622 -51.415504 C 202.606903 -55.927223 198.126434 -58.185036 192.423309 -58.185036 C 186.720184 -58.185036 182.235809 -55.927223 178.974091 -51.415504 C 175.712372 -46.903786 174.083466 -40.685036 174.083466 -32.755348 C 174.083466 -24.825661 175.712372 -18.603004 178.974091 -14.091286 C 182.235809 -9.579567 186.720184 -7.325661 192.423309 -7.325661 C 198.126434 -7.325661 202.606903 -9.579567 205.868622 -14.091286 C 209.130341 -18.603004 210.763153 -24.825661 210.763153 -32.755348 Z M 250.255341 -9.845192 L 250.255341 24.959496 L 239.415497 24.959496 L 239.415497 -65.626442 L 250.255341 -65.626442 L 250.255341 -55.665504 C 252.520966 -59.571754 255.380341 -62.470192 258.837372 -64.364723 C 262.294403 -66.259254 266.427216 -67.208473 271.231903 -67.208473 C 279.200653 -67.208473 285.673309 -64.044411 290.653778 -57.716286 C 295.634247 -51.388161 298.126434 -43.067848 298.126434 -32.755348 C 298.126434 -22.442848 295.634247 -14.122536 290.653778 -7.794411 C 285.673309 -1.466286 279.200653 1.697777 271.231903 1.697777 C 266.427216 1.697777 262.294403 0.752464 258.837372 -1.142067 C 255.380341 -3.036598 252.520966 -5.938942 250.255341 -9.845192 Z M 286.935028 -32.755348 C 286.935028 -40.685036 285.302216 -46.903786 282.040497 -51.415504 C 278.778778 -55.927223 274.298309 -58.185036 268.595184 -58.185036 C 262.892059 -58.185036 258.407684 -55.927223 255.145966 -51.415504 C 251.884247 -46.903786 250.255341 -40.685036 250.255341 -32.755348 C 250.255341 -24.825661 251.884247 -18.603004 255.145966 -14.091286 C 258.407684 -9.579567 262.892059 -7.325661 268.595184 -7.325661 C 274.298309 -7.325661 278.778778 -9.579567 282.040497 -14.091286 C 285.302216 -18.603004 286.935028 -24.825661 286.935028 -32.755348 Z M 0.00143433 -111.388161 " transform="matrix(1, 0, 0, 1, 135.643097, 124.161598)"/>
<path fill="none" stroke-width="12" stroke-linecap="butt" stroke-linejoin="miter" stroke="rgb(0.784314%, 0%, 83.137255%)" stroke-opacity="1" stroke-miterlimit="10" d="M 72 193 L 454 193 L 454 462 L 72 462 Z M 72 193 "/>
<path fill="none" stroke-width="9" stroke-linecap="butt" stroke-linejoin="miter" stroke="rgb(0.784314%, 0%, 83.137255%)" stroke-opacity="1" stroke-miterlimit="10" d="M 173.5 216.5 L 429.5 216.5 L 429.5 397.5 L 173.5 397.5 Z M 173.5 216.5 "/>
<path fill="none" stroke-width="6" stroke-linecap="butt" stroke-linejoin="miter" stroke="rgb(0.784314%, 0%, 83.137255%)" stroke-opacity="1" stroke-miterlimit="10" d="M 242 232 L 413 232 L 413 354 L 242 354 Z M 242 232 "/>
<path fill="none" stroke-width="4" stroke-linecap="butt" stroke-linejoin="miter" stroke="rgb(0.784314%, 0%, 83.137255%)" stroke-opacity="1" stroke-miterlimit="10" d="M 286 244 L 400 244 L 400 325 L 286 325 Z M 286 244 "/>
<path fill="none" stroke-width="3" stroke-linecap="butt" stroke-linejoin="miter" stroke="rgb(0.784314%, 0%, 83.137255%)" stroke-opacity="1" stroke-miterlimit="10" d="M 313.5 252.5 L 390.5 252.5 L 390.5 306.5 L 313.5 306.5 Z M 313.5 252.5 "/>
<path fill="none" stroke-width="1" stroke-linecap="butt" stroke-linejoin="miter" stroke="rgb(0.784314%, 0%, 83.137255%)" stroke-opacity="1" stroke-miterlimit="10" d="M 344.5 263.5 L 378.5 263.5 L 378.5 288.5 L 344.5 288.5 Z M 344.5 263.5 "/>
<path fill="none" stroke-width="2" stroke-linecap="butt" stroke-linejoin="miter" stroke="rgb(0.784314%, 0%, 83.137255%)" stroke-opacity="1" stroke-miterlimit="10" d="M 331 259 L 383 259 L 383 296 L 331 296 Z M 331 259 "/>
</svg>
