<?xml version="1.0" encoding="UTF-8"?>
<svg xmlns="http://www.w3.org/2000/svg" xmlns:xlink="http://www.w3.org/1999/xlink" width="72pt" height="72pt" viewBox="0 0 72 72" version="1.1">
<g id="surface1">
<path style=" stroke:none;fill-rule:nonzero;fill:rgb(65.098041%,80.784315%,22.352941%);fill-opacity:1;" d="M 72 36 C 72 55.882812 55.882812 72 36 72 C 16.117188 72 0 55.882812 0 36 C 0 16.117188 16.117188 0 36 0 C 55.882812 0 72 16.117188 72 36 Z M 72 36 "/>
<path style=" stroke:none;fill-rule:nonzero;fill:rgb(100%,100%,100%);fill-opacity:1;" d="M 23.90625 52.035156 L 19.5625 52.035156 L 19.5625 22.054688 L 23.90625 22.054688 Z M 23.90625 52.035156 "/>
<path style=" stroke:none;fill-rule:nonzero;fill:rgb(100%,100%,100%);fill-opacity:1;" d="M 30.277344 22.054688 L 42.007812 22.054688 C 53.171875 22.054688 58.078125 29.976562 58.078125 37.058594 C 58.078125 44.757812 52.015625 52.0625 42.0625 52.0625 L 30.277344 52.0625 Z M 34.621094 48.171875 L 41.527344 48.171875 C 51.367188 48.171875 53.625 40.753906 53.625 37.058594 C 53.625 31.039062 49.761719 25.945312 41.300781 25.945312 L 34.621094 25.945312 Z M 34.621094 48.171875 "/>
<path style=" stroke:none;fill-rule:nonzero;fill:rgb(100%,100%,100%);fill-opacity:1;" d="M 24.582031 15.8125 C 24.582031 17.351562 23.3125 18.640625 21.734375 18.640625 C 20.15625 18.640625 18.886719 17.351562 18.886719 15.8125 C 18.886719 14.246094 20.15625 12.984375 21.734375 12.984375 C 23.3125 12.984375 24.582031 14.273438 24.582031 15.8125 Z M 24.582031 15.8125 "/>
</g>
</svg>
