<?xml version="1.0" encoding="UTF-8"?>
<svg xmlns="http://www.w3.org/2000/svg" xmlns:xlink="http://www.w3.org/1999/xlink" width="288pt" height="288pt" viewBox="0 0 288 288" version="1.1">
<g id="surface109">
<rect x="0" y="0" width="288" height="288" style="fill:rgb(100%,100%,100%);fill-opacity:1;stroke:none;"/>
<rect x="0" y="0" width="288" height="288" style="fill:rgb(94.901961%,94.901961%,94.901961%);fill-opacity:1;stroke:none;"/>
<path style="fill:none;stroke-width:1.066978;stroke-linecap:butt;stroke-linejoin:round;stroke:rgb(0%,0%,0%);stroke-opacity:1;stroke-dasharray:1.066978,3.200935;stroke-miterlimit:10;" d="M 0 144 L 288 144 "/>
<path style="fill:none;stroke-width:1.066978;stroke-linecap:butt;stroke-linejoin:round;stroke:rgb(0%,0%,0%);stroke-opacity:1;stroke-miterlimit:10;" d="M 0 250.496094 L 3 250.152344 L 6 248.933594 L 9 246.917969 L 12 244.214844 L 15 240.941406 L 18 237.210938 L 21 233.117188 L 24 228.734375 L 27 224.121094 L 30 219.332031 L 33 214.394531 L 36 209.339844 L 39 204.195313 L 42 198.96875 L 45 193.683594 L 48 188.347656 L 51 182.96875 L 54 177.554688 L 57 172.113281 L 60 166.652344 L 63 161.175781 L 66 155.683594 L 69 150.183594 L 75 139.175781 L 78 133.675781 L 81 128.183594 L 84 122.699219 L 87 117.234375 L 90 111.789063 L 93 106.367188 L 96 100.980469 L 99 95.632813 L 102 90.332031 L 105 85.089844 L 108 79.921875 L 111 74.84375 L 114 69.878906 L 117 65.046875 L 120 60.386719 L 123 55.941406 L 126 51.769531 L 129 47.941406 L 132 44.546875 L 135 41.691406 L 138 39.492188 L 141 38.066406 L 144 37.503906 L 147 37.839844 L 150 39.050781 L 153 41.0625 L 156 43.761719 L 159 47.03125 L 162 50.757813 L 165 54.851563 L 168 59.234375 L 171 63.84375 L 174 68.632813 L 177 73.570313 L 180 78.621094 L 183 83.769531 L 186 88.992188 L 189 94.277344 L 192 99.613281 L 195 104.992188 L 198 110.40625 L 201 115.84375 L 204 121.308594 L 207 126.785156 L 210 132.277344 L 213 137.777344 L 219 148.785156 L 222 154.285156 L 225 159.777344 L 228 165.261719 L 231 170.726563 L 234 176.171875 L 237 181.59375 L 240 186.984375 L 243 192.332031 L 246 197.632813 L 249 202.871094 L 252 208.039063 L 255 213.121094 L 258 218.089844 L 261 222.921875 L 264 227.582031 L 267 232.027344 L 270 236.203125 L 273 240.035156 L 276 243.433594 L 279 246.296875 L 282 248.5 L 285 249.929688 L 288 250.5 "/>
</g>
</svg>
